<?xml version="1.0" encoding="UTF-8"?>
<svg width="180px" height="180px" viewBox="0 0 180 180" version="1.1" xmlns="http://www.w3.org/2000/svg" xmlns:xlink="http://www.w3.org/1999/xlink">
    <!-- Generator: Sketch 61 (89581) - https://sketch.com -->
    <title>Overrides/Languages/Auto</title>
    <desc>Created with Sketch.</desc>
    <defs>
        <circle id="path-1" cx="86.9000001" cy="86.9000001" r="86"></circle>
    </defs>
    <g id="Overrides/Languages/Auto" stroke="none" stroke-width="1" fill="none" fill-rule="evenodd">
        <g id="Flag" transform="translate(3.100000, 3.100000)">
            <mask id="mask-2" fill="white">
                <use xlink:href="#path-1"></use>
            </mask>
            <use id="Mask" stroke="#1998FF" stroke-width="8" xlink:href="#path-1"></use>
            <path d="M86.6881084,171.965833 C61.957274,171.965833 42.7770567,133.605399 42.7770567,86.6881084 C42.7770567,39.7708182 61.957274,1.41038366 86.6881084,1.41038366 C111.418943,1.41038366 130.59916,39.7708182 130.59916,86.6881084 C130.59916,133.605399 111.418943,171.965833 86.6881084,171.965833 Z M86.6881084,166.877076 C107.649639,166.877076 125.510403,131.155549 125.510403,86.6881084 C125.510403,42.220668 107.649639,6.49914106 86.6881084,6.49914106 C65.7265775,6.49914106 47.8658141,42.220668 47.8658141,86.6881084 C47.8658141,131.155549 65.7265775,166.877076 86.6881084,166.877076 Z" id="Oval-1" fill="#1998FF" fill-rule="nonzero" mask="url(#mask-2)"></path>
            <path d="M86.6881084,47.8658141 C49.5432407,47.8658141 19.1389578,34.0456855 19.1389578,15.7738118 C19.1389578,-2.4980619 49.5432407,-16.3181905 86.6881084,-16.3181905 C123.832976,-16.3181905 154.237259,-2.4980619 154.237259,15.7738118 C154.237259,34.0456855 123.832976,47.8658141 86.6881084,47.8658141 Z M86.6881084,42.7770567 C121.345529,42.7770567 149.148502,30.1393419 149.148502,15.7738118 C149.148502,1.40828168 121.345529,-11.2294331 86.6881084,-11.2294331 C52.0306877,-11.2294331 24.2277152,1.40828168 24.2277152,15.7738118 C24.2277152,30.1393419 52.0306877,42.7770567 86.6881084,42.7770567 Z" id="Oval-1" fill="#1998FF" fill-rule="nonzero" mask="url(#mask-2)"></path>
            <path d="M86.6881084,189.694407 C49.5432407,189.694407 19.1389578,175.874279 19.1389578,157.602405 C19.1389578,139.330531 49.5432407,125.510403 86.6881084,125.510403 C123.832976,125.510403 154.237259,139.330531 154.237259,157.602405 C154.237259,175.874279 123.832976,189.694407 86.6881084,189.694407 Z M86.6881084,184.60565 C121.345529,184.60565 149.148502,171.967935 149.148502,157.602405 C149.148502,143.236875 121.345529,130.59916 86.6881084,130.59916 C52.0306877,130.59916 24.2277152,143.236875 24.2277152,157.602405 C24.2277152,171.967935 52.0306877,184.60565 86.6881084,184.60565 Z" id="Oval-1" fill="#1998FF" fill-rule="nonzero" mask="url(#mask-2)"></path>
            <path d="M84.365146,4 C84.365146,2.59477845 85.5043032,1.4556213 86.9095247,1.4556213 C88.3147463,1.4556213 89.4539034,2.59477845 89.4539034,4 L89.4539034,169.466692 C89.4539034,170.871914 88.3147463,172.011071 86.9095247,172.011071 C85.5043032,172.011071 84.365146,170.871914 84.365146,169.466692 L84.365146,4 Z" id="Path-19" fill="#1998FF" fill-rule="nonzero" mask="url(#mask-2)"></path>
            <path d="M4,89.4539034 C2.59477845,89.4539034 1.4556213,88.3147463 1.4556213,86.9095247 C1.4556213,85.5043032 2.59477845,84.365146 4,84.365146 L169.503621,84.365146 C170.908842,84.365146 172.048,85.5043032 172.048,86.9095247 C172.048,88.3147463 170.908842,89.4539034 169.503621,89.4539034 L4,89.4539034 Z" id="Path-20" fill="#1998FF" fill-rule="nonzero" mask="url(#mask-2)"></path>
        </g>
    </g>
</svg>