<svg width="12" height="14" viewBox="0 0 12 14" fill="none" xmlns="http://www.w3.org/2000/svg">
<path fill-rule="evenodd" clip-rule="evenodd" d="M6.25 0C7.76878 0 9 1.2536 9 2.8L9.00105 3.8438C9.73093 3.8957 10.097 4.02562 10.4653 4.22617C10.9542 4.49238 11.3378 4.88304 11.5993 5.38082C11.8608 5.8786 12 6.37234 12 7.73393V10.0842C12 11.4458 11.8608 11.9396 11.5993 12.4374C11.3378 12.9351 10.9542 13.3258 10.4653 13.592C9.97638 13.8582 9.49145 14 8.15417 14H3.84583C2.50855 14 2.02362 13.8582 1.53473 13.592C1.04584 13.3258 0.66216 12.9351 0.400699 12.4374C0.139239 11.9396 0 11.4458 0 10.0842V7.73393C0 6.37234 0.139239 5.8786 0.400699 5.38082C0.66216 4.88304 1.04584 4.49238 1.53473 4.22617C1.90319 4.02553 2.26939 3.89558 2.99991 3.84373L3 2.8C3 1.2536 4.23122 0 5.75 0H6.25ZM6 6.87273C5.44772 6.87273 5 7.32858 5 7.89091C5 8.1647 5.10614 8.41325 5.2788 8.59623L5.37049 8.68207L5.09703 10.3527C5.09251 10.3803 5.09023 10.4083 5.09023 10.4364C5.09023 10.6863 5.26711 10.8941 5.50035 10.9373L5.59023 10.9455H6.40977C6.43731 10.9455 6.4648 10.9431 6.49197 10.9385C6.73409 10.8974 6.90638 10.6856 6.9098 10.4443L6.90297 10.3527L6.62951 8.68207C6.85554 8.4954 7 8.21033 7 7.89091C7 7.32858 6.55228 6.87273 6 6.87273ZM6.25 1.52727H5.75C5.05964 1.52727 4.5 2.09709 4.5 2.8V3.81818H7.5V2.8C7.5 2.09709 6.94036 1.52727 6.25 1.52727Z" fill="#919699"/>
</svg>
