<svg xmlns="http://www.w3.org/2000/svg" width="24" height="24" viewBox="0 0 24 24">
    <path fill="#242C33" fill-rule="evenodd" d="M9.5 12.75a4.25 4.25 0 1 1 0-8.5h6.69l-.72-.72a.75.75 0 0 1-.073-.976l.073-.084a.75.75 0 0 1 1.06 0l2 2a.75.75 0 0 1 0 1.06l-2 2a.75.75 0 0 1-1.06-1.06l.719-.72H9.5a2.75 2.75 0 0 0-2.745 2.582L6.75 8.5a2.75 2.75 0 0 0 2.75 2.75h5a4.25 4.25 0 1 1 0 8.5H7.812l.718.72a.75.75 0 0 1-1.06 1.06l-2-2a.75.75 0 0 1 0-1.06l2-2a.75.75 0 0 1 1.06 1.06l-.719.72H14.5a2.75 2.75 0 1 0 0-5.5z"/>
</svg>
